<?xml version="1.0" standalone="no"?>
<!DOCTYPE svg PUBLIC "-//W3C//DTD SVG 20010904//EN"
 "http://www.w3.org/TR/2001/REC-SVG-20010904/DTD/svg10.dtd">
<svg version="1.0" xmlns="http://www.w3.org/2000/svg"
 width="960.000000pt" height="324.000000pt" viewBox="0 0 960.000000 324.000000"
 preserveAspectRatio="xMidYMid meet">

<g transform="translate(0.000000,324.000000) scale(0.100000,-0.100000)"
fill="#000000" stroke="none">
<path d="M1515 3232 c-62 -4 -246 -33 -270 -42 -22 -8 -22 -11 78 -345 83
-276 104 -334 117 -329 8 3 58 8 111 11 l97 6 6 61 c3 34 15 189 27 345 18
237 19 285 8 292 -13 8 -66 9 -174 1z"/>
<path d="M1004 3111 c-124 -51 -314 -160 -314 -179 0 -7 386 -510 414 -539 8
-9 34 0 111 38 55 28 100 57 100 64 0 7 -43 157 -95 334 -70 237 -99 321 -110
321 -8 -1 -56 -18 -106 -39z"/>
<path d="M3706 2908 c-113 -15 -181 -77 -211 -193 -19 -75 -22 -667 -3 -760
16 -83 60 -143 130 -179 47 -24 69 -29 135 -29 134 -2 207 37 251 132 25 54
27 65 30 269 l4 212 -136 0 -136 0 0 -70 0 -70 45 0 45 0 0 -131 0 -131 -29
-29 c-38 -37 -88 -39 -128 -5 l-28 24 -3 369 c-2 351 -1 369 17 400 14 23 30
34 55 39 87 16 118 -19 124 -142 l5 -84 85 0 85 0 -6 98 c-3 53 -13 118 -22
144 -37 107 -151 158 -309 136z"/>
<path d="M8130 2909 c-91 -10 -156 -54 -198 -132 l-27 -52 0 -395 0 -395 27
-50 c51 -98 125 -138 253 -138 139 0 231 59 271 174 17 49 19 88 19 409 0 321
-2 360 -19 409 -45 129 -161 190 -326 170z m122 -178 l33 -29 3 -356 c3 -309
1 -360 -13 -390 -40 -84 -159 -71 -185 22 -13 49 -13 655 0 704 22 78 103 102
162 49z"/>
<path d="M4130 2330 l0 -570 225 0 225 0 0 75 0 75 -135 0 -135 0 0 175 0 175
95 0 95 0 0 75 0 74 -92 3 -93 3 -3 168 -2 167 135 0 135 0 0 75 0 75 -225 0
-225 0 0 -570z"/>
<path d="M4660 2330 l0 -570 80 0 80 0 0 352 c0 205 4 348 9 342 7 -7 145
-438 208 -646 l14 -48 84 0 85 0 0 570 0 570 -80 0 -80 0 -2 -322 -3 -323 -43
135 c-24 74 -70 219 -103 323 l-60 187 -94 0 -95 0 0 -570z"/>
<path d="M5310 2330 l0 -570 225 0 225 0 0 75 0 75 -130 0 -130 0 0 175 0 174
93 3 92 3 3 73 3 72 -96 0 -95 0 0 170 0 170 130 0 130 0 0 75 0 75 -225 0
-225 0 0 -570z"/>
<path d="M5850 2330 l0 -570 93 0 92 0 -3 255 c-1 140 1 255 5 255 4 0 46
-111 92 -248 46 -136 87 -251 91 -255 4 -4 49 -6 101 -5 l95 3 -87 245 c-48
135 -88 250 -88 256 -1 6 17 19 40 29 90 41 113 108 108 310 -4 114 -7 136
-29 180 -27 53 -70 88 -129 105 -20 5 -114 10 -208 10 l-173 0 0 -570z m304
409 c39 -18 48 -55 44 -189 -3 -114 -5 -123 -27 -141 -17 -14 -39 -19 -82 -19
l-59 0 0 173 c0 96 3 177 7 180 10 11 90 8 117 -4z"/>
<path d="M6651 2848 c-27 -134 -201 -1063 -201 -1075 0 -10 21 -13 85 -13 47
0 85 1 86 3 0 1 8 47 17 102 l18 100 104 0 105 0 19 -102 19 -103 93 0 c52 0
94 3 94 8 0 4 -48 260 -107 570 l-107 562 -107 0 -108 0 -10 -52z m148 -475
c18 -109 35 -210 38 -225 l6 -28 -83 0 c-80 0 -82 1 -77 23 3 12 20 113 38
225 19 111 36 202 40 202 3 0 21 -89 38 -197z"/>
<path d="M7040 2825 l0 -75 80 0 80 0 0 -495 0 -495 95 0 95 0 0 495 0 495 80
0 80 0 0 75 0 75 -255 0 -255 0 0 -75z"/>
<path d="M7620 2330 l0 -570 90 0 90 0 0 570 0 570 -90 0 -90 0 0 -570z"/>
<path d="M8570 2330 l0 -570 75 0 75 0 0 357 c0 196 4 353 8 347 5 -5 58 -165
118 -356 l108 -348 83 0 83 0 0 570 0 570 -81 0 -80 0 3 -320 c2 -176 0 -320
-3 -320 -3 0 -50 143 -105 318 l-100 317 -92 3 -92 3 0 -571z"/>
<path d="M480 2753 c-94 -96 -209 -239 -199 -247 2 -2 138 -83 301 -181 l298
-178 22 29 c12 16 46 54 75 85 l53 55 -211 272 c-116 150 -216 272 -222 272
-7 0 -59 -48 -117 -107z"/>
<path d="M2585 2444 c-137 -130 -249 -239 -248 -242 1 -4 26 -45 57 -91 30
-46 56 -87 58 -92 4 -11 641 245 646 259 11 35 -225 404 -256 402 -4 -1 -119
-107 -257 -236z"/>
<path d="M2812 2042 c-304 -123 -313 -128 -308 -152 3 -14 14 -65 23 -114 l18
-89 140 7 c77 3 234 6 349 6 l208 0 -7 73 c-15 154 -76 398 -99 396 -6 0 -152
-58 -324 -127z"/>
<path d="M40 1808 c0 -16 -3 -27 -7 -25 -5 3 -6 -19 -5 -49 3 -34 0 -54 -7
-54 -14 0 -15 -95 -1 -121 6 -10 12 -56 13 -102 l2 -83 100 22 c55 12 206 43
335 69 l235 48 -5 106 -5 106 -33 3 c-18 2 -30 7 -27 13 3 5 -1 6 -9 3 -19 -7
-456 68 -450 77 2 4 -4 5 -14 2 -10 -2 -42 0 -70 5 l-52 9 0 -29z"/>
<path d="M9046 1534 c-12 -12 -16 -37 -16 -104 0 -79 2 -91 20 -100 12 -7 27
-7 38 -2 9 5 23 7 30 5 9 -3 12 11 12 51 0 53 -1 56 -25 56 -14 0 -25 -4 -25
-10 0 -5 5 -10 10 -10 6 0 10 -16 10 -36 0 -28 -3 -35 -17 -32 -15 3 -18 15
-18 83 0 68 3 80 18 83 12 2 17 -3 17 -17 0 -12 6 -21 15 -21 22 0 19 47 -4
60 -27 14 -47 13 -65 -6z"/>
<path d="M8140 1436 c0 -88 3 -106 15 -106 11 0 15 11 15 40 0 22 4 40 8 40 5
0 14 -18 21 -40 7 -23 18 -40 26 -40 19 0 19 12 1 55 -13 29 -13 35 0 46 10 8
14 27 12 58 l-3 46 -47 3 -48 3 0 -105z m65 44 c0 -51 -29 -48 -33 3 -3 33 -1
38 15 35 13 -2 18 -12 18 -38z"/>
<path d="M8270 1435 l0 -105 45 0 c25 0 45 5 45 10 0 6 -11 10 -25 10 -22 0
-25 4 -25 35 0 24 5 35 15 35 8 0 15 7 15 15 0 8 -7 15 -15 15 -10 0 -15 11
-15 35 0 31 3 35 25 35 14 0 25 5 25 10 0 6 -20 10 -45 10 l-45 0 0 -105z"/>
<path d="M8404 1435 c-17 -88 -18 -105 -6 -105 7 0 16 9 19 20 3 11 14 20 25
20 11 0 22 -9 25 -20 3 -11 12 -20 20 -20 15 0 14 24 -11 145 -9 47 -16 61
-32 63 -18 3 -22 -8 -40 -103z m46 18 c0 -10 3 -28 6 -40 5 -17 2 -23 -10 -23
-12 0 -16 10 -16 40 0 22 5 40 10 40 6 0 10 -8 10 -17z"/>
<path d="M8530 1435 l0 -105 40 0 c42 0 56 16 18 22 -22 3 -23 8 -26 96 -2 73
-6 92 -17 92 -12 0 -15 -20 -15 -105z"/>
<path d="M8640 1435 c0 -87 3 -105 15 -105 12 0 15 18 15 105 0 87 -3 105 -15
105 -12 0 -15 -18 -15 -105z"/>
<path d="M8710 1530 c0 -5 11 -10 25 -10 14 0 25 -1 25 -3 0 -2 -13 -40 -30
-85 -16 -46 -30 -87 -30 -92 0 -6 20 -10 45 -10 25 0 45 5 45 10 0 6 -11 10
-25 10 -14 0 -25 4 -25 10 0 5 11 39 25 76 35 94 34 104 -15 104 -22 0 -40 -4
-40 -10z"/>
<path d="M8828 1435 c3 -83 6 -105 18 -105 11 0 14 20 14 105 0 93 -2 105 -17
105 -16 0 -18 -10 -15 -105z"/>
<path d="M8890 1435 c0 -85 3 -105 15 -105 10 0 15 16 17 63 l3 62 19 -62 c13
-44 24 -63 35 -63 14 0 16 15 16 105 0 77 -3 105 -12 105 -9 0 -13 -18 -13
-57 0 -65 -11 -61 -30 10 -9 35 -17 47 -31 47 -17 0 -19 -9 -19 -105z"/>
<path d="M377 1322 l-319 -66 7 -35 c12 -67 67 -215 117 -318 28 -57 52 -103
53 -103 2 0 133 84 292 186 199 129 288 191 286 202 0 9 -15 51 -31 92 -17 41
-33 83 -36 93 -3 10 -15 17 -28 16 -13 0 -166 -30 -341 -67z"/>
<path d="M8140 1224 c0 -8 5 -58 12 -110 9 -78 14 -94 29 -94 13 0 18 12 24
60 4 33 10 60 15 60 4 0 10 -27 14 -60 6 -48 10 -60 25 -60 15 0 19 16 30 106
7 58 10 108 6 112 -11 11 -25 -22 -25 -63 -1 -71 -18 -75 -26 -7 -9 86 -30 99
-40 26 -3 -22 -8 -50 -11 -64 -6 -25 -6 -25 -13 5 -4 17 -8 47 -9 68 -1 26 -6
37 -16 37 -8 0 -15 -7 -15 -16z"/>
<path d="M8346 1224 c-12 -11 -16 -36 -16 -98 0 -92 9 -108 57 -108 41 0 53
26 53 112 0 62 -4 80 -18 93 -23 21 -56 22 -76 1z m62 -89 c2 -75 -7 -101 -32
-92 -13 5 -16 22 -16 80 0 77 4 90 30 85 11 -3 16 -19 18 -73z"/>
<path d="M8470 1130 c0 -91 3 -110 15 -110 12 0 15 14 16 63 l1 62 15 -62 c8
-35 18 -63 23 -63 4 0 11 27 15 60 4 33 11 60 16 60 5 0 9 -27 9 -60 0 -33 4
-60 10 -60 6 0 10 43 10 110 0 102 -1 110 -19 110 -16 0 -21 -10 -26 -55 -4
-30 -11 -57 -15 -60 -4 -3 -13 22 -19 55 -10 49 -16 60 -32 60 -18 0 -19 -8
-19 -110z"/>
<path d="M8640 1130 l0 -110 40 0 c22 0 40 5 40 10 0 6 -11 10 -25 10 -22 0
-25 4 -25 40 0 33 3 40 20 40 11 0 20 5 20 10 0 6 -9 10 -20 10 -16 0 -20 7
-20 35 0 31 3 35 25 35 16 0 25 6 25 15 0 11 -11 15 -40 15 l-40 0 0 -110z"/>
<path d="M8757 1234 c-4 -4 -7 -54 -7 -111 0 -83 3 -103 15 -103 11 0 15 16
17 68 l3 67 20 -65 c14 -43 26 -66 38 -68 15 -3 17 8 17 107 0 90 -3 111 -15
111 -10 0 -15 -16 -17 -62 l-3 -63 -20 59 c-19 57 -33 74 -48 60z"/>
<path d="M8890 1214 c0 -14 4 -23 10 -19 6 3 10 15 10 26 0 10 -4 19 -10 19
-5 0 -10 -12 -10 -26z"/>
<path d="M8958 1229 c-31 -18 -23 -70 17 -109 38 -37 43 -72 13 -78 -13 -3
-18 3 -18 22 0 17 -6 26 -16 26 -11 0 -14 -8 -12 -31 6 -62 90 -55 96 8 2 25
-5 40 -32 71 -40 44 -46 72 -16 72 11 0 20 -7 20 -15 0 -8 7 -15 15 -15 20 0
19 24 -1 44 -18 18 -41 20 -66 5z"/>
<path d="M2220 929 c-30 -28 -67 -58 -82 -67 -16 -9 -28 -21 -28 -26 0 -18
314 -616 323 -616 31 0 293 202 360 277 18 20 14 24 -242 252 -143 127 -263
231 -268 231 -4 -1 -33 -24 -63 -51z"/>
<path d="M8140 820 c0 -91 3 -110 15 -110 11 0 15 12 15 47 0 52 11 49 30 -9
8 -26 18 -38 30 -38 17 0 17 2 -1 49 -16 42 -16 50 -4 55 10 4 15 20 15 50 0
51 -16 66 -69 66 l-31 0 0 -110z m70 45 c0 -28 -4 -35 -20 -35 -16 0 -20 7
-20 35 0 28 4 35 20 35 16 0 20 -7 20 -35z"/>
<path d="M8270 820 c0 -103 1 -110 20 -110 19 0 20 7 20 110 0 103 -1 110 -20
110 -19 0 -20 -7 -20 -110z"/>
<path d="M8356 914 c-12 -11 -16 -36 -16 -98 0 -94 7 -106 62 -104 l36 1 4 54
c3 48 1 53 -18 53 -18 0 -21 -6 -20 -42 1 -32 -3 -43 -14 -43 -12 0 -16 16
-18 73 -3 80 9 112 35 91 8 -7 12 -18 9 -26 -3 -8 2 -13 13 -13 15 0 18 5 14
23 -3 12 -10 28 -16 35 -13 17 -52 15 -71 -4z"/>
<path d="M8480 820 c0 -91 3 -110 15 -110 11 0 15 12 15 50 0 43 3 50 20 50
17 0 20 -7 20 -50 0 -38 4 -50 15 -50 12 0 15 19 15 110 0 91 -3 110 -15 110
-11 0 -15 -12 -15 -50 0 -43 -3 -50 -20 -50 -17 0 -20 7 -20 50 0 38 -4 50
-15 50 -12 0 -15 -19 -15 -110z"/>
<path d="M8610 915 c0 -8 7 -15 15 -15 12 0 15 -17 15 -95 0 -88 1 -95 20 -95
19 0 20 7 20 95 0 78 3 95 15 95 8 0 15 7 15 15 0 11 -12 15 -50 15 -38 0 -50
-4 -50 -15z"/>
<path d="M8753 923 c-7 -2 -13 -22 -13 -42 0 -27 7 -44 26 -62 34 -31 45 -54
38 -73 -9 -24 -33 -19 -40 9 -10 39 -33 32 -25 -7 6 -29 11 -33 41 -36 24 -3
38 2 47 14 22 30 15 57 -27 108 -33 40 -38 51 -28 63 11 13 14 12 29 -6 23
-28 39 -27 31 2 -8 34 -40 46 -79 30z"/>
<path d="M8910 820 c0 -91 3 -110 15 -110 11 0 15 12 15 50 0 43 3 50 20 50
11 0 20 5 20 10 0 6 -9 10 -20 10 -16 0 -20 7 -20 35 0 31 3 35 25 35 16 0 25
6 25 15 0 11 -11 15 -40 15 l-40 0 0 -110z"/>
<path d="M9036 914 c-12 -11 -16 -36 -16 -90 0 -94 10 -114 55 -114 45 0 55
20 55 114 0 82 -13 106 -55 106 -13 0 -31 -7 -39 -16z m62 -79 c4 -71 -3 -105
-22 -105 -20 0 -26 23 -26 94 0 67 5 78 30 74 11 -2 16 -19 18 -63z"/>
<path d="M9160 820 c0 -91 3 -110 15 -110 11 0 15 12 15 46 0 53 14 51 31 -6
8 -27 18 -40 30 -40 17 0 17 3 2 46 -11 34 -12 49 -4 57 6 6 11 30 11 54 0 48
-17 63 -69 63 l-31 0 0 -110z m70 45 c0 -28 -4 -35 -20 -35 -16 0 -20 7 -20
35 0 28 4 35 20 35 16 0 20 -7 20 -35z"/>
<path d="M9355 838 c-9 -51 -18 -101 -21 -110 -3 -11 0 -18 9 -18 8 0 17 9 20
20 3 12 14 20 25 20 12 0 23 -9 27 -20 6 -20 35 -29 35 -11 0 5 -9 53 -20 106
-11 53 -20 99 -20 101 0 2 -9 4 -19 4 -16 0 -21 -14 -36 -92z m47 -24 c4 -35
-7 -54 -22 -38 -9 11 -1 74 10 74 4 0 10 -16 12 -36z"/>
<path d="M9480 821 c0 -90 3 -111 15 -111 10 0 15 16 17 63 l3 62 19 -62 c11
-38 24 -63 32 -63 11 0 14 24 14 110 0 67 -4 110 -10 110 -6 0 -10 -27 -10
-62 0 -70 -8 -69 -30 5 -10 33 -22 53 -33 55 -15 3 -17 -8 -17 -107z"/>
<path d="M1357 392 c-48 -180 -88 -332 -87 -338 0 -25 311 -62 423 -50 l62 7
-35 344 c-20 190 -38 346 -41 349 -2 2 -56 6 -119 9 l-116 5 -87 -326z"/>
<path d="M8140 510 l0 -110 45 0 c49 0 62 17 18 22 -24 3 -28 8 -31 41 -3 32
0 37 17 37 27 0 27 16 1 23 -14 4 -20 14 -20 35 0 26 4 31 27 34 48 6 39 28
-11 28 l-46 0 0 -110z"/>
<path d="M8272 608 c-8 -8 -12 -43 -12 -98 0 -78 2 -88 23 -107 26 -22 75 -35
83 -22 3 5 -1 12 -9 15 -13 5 -13 9 -1 32 17 33 18 129 1 162 -14 28 -64 39
-85 18z m53 -99 c0 -68 -3 -84 -15 -84 -12 0 -16 16 -18 74 -3 82 2 105 21 98
8 -2 12 -29 12 -88z"/>
<path d="M8400 522 c0 -106 7 -122 50 -122 43 0 50 16 50 122 0 79 -3 98 -15
98 -11 0 -15 -20 -17 -97 -2 -79 -6 -98 -18 -98 -12 0 -16 19 -18 98 -2 77 -6
97 -17 97 -12 0 -15 -19 -15 -98z"/>
<path d="M8556 533 c-10 -49 -20 -98 -23 -110 -7 -29 22 -32 30 -3 3 12 14 20
25 20 12 0 23 -9 27 -20 3 -11 13 -20 21 -20 16 0 15 8 -12 143 -8 38 -14 70
-14 73 0 2 -8 4 -19 4 -15 0 -21 -15 -35 -87z m46 -23 c3 -34 1 -40 -15 -40
-13 0 -17 5 -13 16 3 9 6 27 6 40 0 40 18 27 22 -16z"/>
<path d="M8680 510 l0 -110 40 0 c42 0 56 16 18 22 -22 3 -23 8 -26 101 -2 77
-6 97 -17 97 -12 0 -15 -20 -15 -110z"/>
<path d="M8830 510 c0 -91 3 -110 15 -110 11 0 15 12 15 50 0 43 3 50 20 50
11 0 20 5 20 10 0 6 -9 10 -20 10 -16 0 -20 7 -20 35 0 31 3 35 25 35 16 0 25
6 25 15 0 11 -11 15 -40 15 l-40 0 0 -110z"/>
<path d="M8940 522 c0 -106 7 -122 50 -122 43 0 50 16 50 122 0 79 -3 98 -15
98 -11 0 -15 -20 -17 -97 -2 -79 -6 -98 -18 -98 -12 0 -16 19 -18 98 -2 77 -6
97 -17 97 -12 0 -15 -19 -15 -98z"/>
<path d="M9070 605 c0 -8 7 -15 15 -15 12 0 15 -17 15 -95 0 -78 3 -95 15 -95
12 0 15 17 15 95 0 78 3 95 15 95 8 0 15 7 15 15 0 11 -12 15 -45 15 -33 0
-45 -4 -45 -15z"/>
<path d="M9190 526 c0 -105 10 -126 60 -126 41 0 50 24 50 129 0 74 -3 91 -15
91 -12 0 -15 -17 -15 -94 0 -71 -3 -95 -14 -99 -23 -9 -26 2 -26 100 0 86 -1
93 -20 93 -19 0 -20 -7 -20 -94z"/>
<path d="M9330 510 c0 -91 3 -110 15 -110 11 0 15 12 15 47 0 52 11 49 30 -9
8 -26 18 -38 30 -38 17 0 17 2 -1 49 -16 43 -16 51 -4 61 18 15 20 81 3 98 -7
7 -29 12 -50 12 l-38 0 0 -110z m68 48 c-2 -22 -9 -34 -20 -36 -15 -3 -18 4
-18 32 0 30 4 36 21 36 17 0 20 -5 17 -32z"/>
<path d="M9460 510 l0 -110 45 0 c25 0 45 5 45 10 0 6 -11 10 -25 10 -22 0
-25 4 -25 40 0 29 4 40 15 40 8 0 15 5 15 10 0 6 -7 10 -15 10 -10 0 -15 11
-15 35 0 31 3 35 25 35 16 0 25 6 25 15 0 11 -12 15 -45 15 l-45 0 0 -110z"/>
</g>
</svg>
