<svg xmlns="http://www.w3.org/2000/svg" xmlns:xlink="http://www.w3.org/1999/xlink" version="1.1" id="Layer_1" x="0px" y="0px" viewBox="0 0 158.5 166.6" style="enable-background:new 0 0 158.5 166.6;" xml:space="preserve">
<style type="text/css">
	.st0{fill:#DA4B9A;}
	.st1{fill:#000;}
	.st2{fill:#4694C7;}
</style>
<g>
	<path class="st0" d="M22.2,133.2c-1.8-3.9-3.7-7.8-5.3-11.9c-1.2-3-2.3-6.1-2.9-9.4c-0.1-0.9-0.2-1.7-0.1-2.6   c0-0.7,0.3-1.3,0.8-1.8c1.1-1.2,2.2-0.9,2.6,0.6c2,7,5.5,13.3,9.7,19.2c0.3,0.4,0.6,0.7,0.9,1.1c0.2-0.6-0.1-1-0.3-1.4   c-1.8-4.2-3.4-8.4-4.5-12.9c-0.3-1.1-0.3-2.1,0-3.2c0.1-0.6,0.5-1,1.1-1.1c0.6-0.1,1,0.3,1.3,0.7c1.1,1.7,1.9,3.6,2.9,5.4   c0.1,0.2,0.2,0.3,0.3,0.5c1.4,3,3,5.9,4.6,8.8c1.8,3.4,4.1,6.2,7.1,8.6c4.3,3.4,9.3,5.3,14.8,5.4c3.6,0.1,7-0.8,10.3-2.4   c3.2-1.5,6.6-2.2,10.1-1.6c2.7,0.4,4.8,1.9,5.2,4c-0.2,0.6-0.7,0.5-1.2,0.5c-4.3-0.5-7.9,1.1-11.1,3.8c-2.3,1.9-4,4.2-5.4,6.8   c-1.9,3.5-4,6.9-7.4,9.1c-9.7,6.5-21.6,6.8-31.5-1.7c-4.5-3.8-7.8-8.6-10.6-13.7c-2.2-4.1-4.4-8.3-6.1-12.6   c-0.7-1.8-1.4-3.7-1.3-5.8c0-0.5,0.1-1,0.3-1.4c0.5-0.8,1.5-0.7,2,0.2c0.4,0.8,0.7,1.6,1,2.4c1.8,3.7,4.1,7.1,6.7,10.3   c0.1,0.1,0.2,0.1,0.4,0.2c0.1-0.6-0.3-1-0.5-1.5c-2.3-5-4.6-9.9-6-15.2c-0.4-1.5-0.7-3-0.6-4.5c0-0.3,0-0.7,0.1-0.9   c0.2-0.6,0.6-1.1,1.3-1.1c0.6,0,0.9,0.5,1,1c1,2.7,2.1,5.4,3.4,8c1.8,3.7,3.8,7.2,6.6,10.2c0.1,0.1,0.2,0.2,0.2,0.3   c0,0.1,0,0.3,0.2,0.2c0.1-0.1,0-0.3-0.1-0.3C22.3,133.5,22.2,133.4,22.2,133.2z"/>
	<path class="st1" d="M42.1,63.9c-4.4,5.3-9.9,7.3-16.2,7.3c-12.8,0.1-21.2-8.6-23-19.4c-1.3-7.5,0-14.5,4.7-20.6   c5.3-6.8,12.5-9.5,20.9-8.3c8.7,1.2,14.6,6.4,17.8,14.5c1.2,2.9,1.7,6,1.7,9.1c0,7.6,0,15.2,0,22.8c-0.1,12.3-8.4,21.2-20.7,22.1   c-4.7,0.3-9.2-0.2-13.7-1.5c-1.9-0.6-2.9-2-2.4-3.6c0.5-1.7,2.1-2.5,4-1.9c4.2,1.3,8.6,1.8,13,1.2c7.3-0.9,11.7-4.9,13.2-12.1   C42.1,70.5,42.2,67.4,42.1,63.9z M42.1,49.3c0.1-6.2-0.9-10.1-3.3-13.6c-5.5-8-15.9-9.8-23.2-3.9c-8.2,6.5-9.6,19.1-3,27.2   c5.5,6.9,14.4,8.5,21.5,3.9C39.7,59.3,42,53.9,42.1,49.3z"/>
	<path class="st1" d="M110.5,118.6c0,0.6,0,1,0,1.4c0,8.1,0,16.1,0,24.2c0,2.3-2,3.6-4.1,2.7c-1-0.4-1.6-1.3-1.6-2.4   c0-14.5-0.1-29,0-43.5c0.1-10.6,7.4-19.7,17-22.1c12.8-3.1,25,4.5,27.7,17.5c1.6,7.8,0.5,15.1-4.3,21.6   c-8.4,11.1-24.6,11.7-33.9,1.5C111.1,119.2,110.9,119,110.5,118.6z M144.3,102.4c0.3-4-1.6-9.1-5.1-13c-6.5-7.3-17.5-7.2-23.9,0.2   c-6.7,7.6-6.1,19.5,1.2,26.8c6.1,6.1,15.1,6.3,21.5,0.5C142,113.2,144,108.6,144.3,102.4z"/>
	<path class="st2" d="M80.9,139.3c-0.4-2.1-2.5-3.6-5.2-4c-3.6-0.5-6.9,0.1-10.1,1.6c-3.3,1.5-6.7,2.4-10.3,2.4   c-5.5-0.1-10.4-2-14.8-5.4c-3-2.3-5.4-5.2-7.1-8.6c-1.5-2.9-3.2-5.8-4.6-8.8c0.2-3.3,0-6.5,0.7-9.8c0.2-1,0.5-1.9,1.1-2.8   c0.4-0.5,0.8-0.9,1.5-0.7c0.7,0.2,0.6,0.9,0.5,1.4c-0.2,1.5-0.3,2.9-0.1,4.4c0.2,2.6,0.6,5.2,1.3,8.1c0.2-3.1,0.3-5.9,0.6-8.7   c0.3-3.2,0.6-6.4,1.8-9.4c0.2-0.4,0.4-0.9,0.7-1.3c0.3-0.5,0.8-0.8,1.5-0.6c0.6,0.2,0.5,0.8,0.5,1.3c-0.4,3.1-0.7,6.2-0.6,9.3   c0.1,2.5,0.4,5,1.1,7.7c0.3-1.8,0.3-3.2,0.3-4.7c0.2-4.6,0.5-9.2,1.7-13.6c0.2-0.9,0.6-1.8,1.1-2.6c0.4-0.6,0.9-1,1.6-1.2   c1.1-0.3,1.8,0.2,1.5,1.4c-0.8,3.4-0.9,6.8-0.9,10.2c0.1,3.1,0.4,6.1,1.1,9.1c0.2-2.7,0.4-5.4,0.8-8.1c0.3-1.7,0.6-3.4,1-5   c0.2-0.9,0.6-1.7,1.3-2.2c0.8-0.7,1.6-0.4,1.8,0.6c0.1,0.4,0.1,0.9,0.1,1.3c0.1,4.4,0.1,8.7,0.2,13.1c0.2,9.2,6.6,16.8,15.6,18.5   c1.8,0.3,3.6,0.3,5.4,0.3c2.6,0.1,5,0.8,7,2.4C80.3,136,81.4,137.3,80.9,139.3z"/>
	<path class="st1" d="M59.3,94.9c0-4.4,0-8.9,0-13.3c0-2.1,1-3.3,2.9-3.4c1.7,0,2.9,1.4,2.9,3.4c0,8.1,0,16.1,0,24.2   c0,4.2,1.2,8.1,4.4,11c4.4,4,9.6,4.8,15,2.9c5.3-1.8,8.1-5.9,9-11.3c0.2-1.1,0.2-2.3,0.2-3.5c0-7.9,0-15.8,0-23.7   c0-1.4,0.7-2.4,1.9-2.9c1.1-0.4,2.3-0.1,3.2,0.8c0.5,0.6,0.7,1.2,0.7,2c0,8.5,0.1,17,0,25.5c-0.1,9.5-5.8,16.9-14.5,19.2   c-13.1,3.4-25.3-5-25.5-19.4C59.3,102.7,59.3,98.8,59.3,94.9z"/>
	<path class="st1" d="M99.4,36.9c0,10.3,0,20.7,0,31c0,1.4-0.3,2.5-1.7,3.1c-1.7,0.8-3.6-0.2-4-2c-0.1-0.5-0.1-1-0.1-1.5   c0-20.4,0-40.7,0-61.1c0-0.6,0-1.3,0.2-1.9c0.4-1.4,1.5-2.2,3-2.1c1.4,0.1,2.5,1.1,2.7,2.5c0.1,0.4,0,0.8,0,1.2   C99.4,16.4,99.4,26.6,99.4,36.9z"/>
	<path class="st1" d="M64.8,54.7c0-4.1,0-8.1,0-12.2c0-9.7,7.1-17.9,16.7-19.4c1.8-0.3,3.6-0.3,5.4-0.2c1.8,0.1,2.9,1.4,2.8,3   c-0.1,1.6-1.5,2.7-3.3,2.6c-8.7-0.7-15.9,6-15.9,14.7c0,8.4,0,16.9,0,25.3c0,1.6-1,2.7-2.5,2.8c-1.5,0.2-2.8-0.7-3.2-2.1   c-0.1-0.4-0.1-0.8-0.1-1.2C64.8,63.5,64.8,59.1,64.8,54.7z"/>
	<path class="st1" d="M59.3,46.9c0,7.1,0,14.1,0,21.2c0,2-1.1,3.2-2.9,3.2c-1.7,0-2.9-1.2-2.9-3.1c0-14.1,0-28.2,0-42.3   c0-1.5,0.6-2.5,1.8-2.9c1.1-0.4,2.5-0.1,3.3,0.8c0.5,0.6,0.7,1.3,0.7,2.1C59.3,32.9,59.3,39.9,59.3,46.9z"/>
	<path class="st1" d="M155.6,80c-0.3,0.9-0.7,1.8-1,2.8c-0.1,0.2-0.1,0.5-0.5,0.6c-0.4,0-0.4-0.3-0.5-0.5c-0.4-0.9-0.7-1.8-1.3-2.7   c0,0.9,0,1.8,0,2.7c0,0.3,0,0.6-0.4,0.5c-0.4,0-0.3-0.3-0.3-0.5c0-1.2,0-2.5,0-3.7c0-0.3-0.2-0.8,0.4-0.8c0.4,0,0.6,0.2,0.8,0.6   c0.4,1.1,0.8,2.1,1.3,3.5c0.5-1.3,0.9-2.3,1.3-3.3c0.2-0.4,0.3-0.8,0.9-0.8c0.7,0.1,0.3,0.6,0.4,0.9c0,1,0,2.1,0,3.1   c0,0.3,0.3,0.9-0.3,1c-0.7,0-0.3-0.6-0.4-0.9c-0.1-0.8,0-1.6,0-2.4C155.7,80,155.7,80,155.6,80z"/>
	<path class="st1" d="M148.6,81.2c0-0.4,0-0.7,0-1.1c0.1-0.8-0.1-1.3-1.1-1.1c-0.2,0-0.6,0.1-0.6-0.3c0-0.4,0.3-0.4,0.6-0.4   c1,0,1.9,0,2.9,0c0.3,0,0.6,0,0.6,0.4c0,0.4-0.3,0.3-0.5,0.3c-1.1-0.2-1.2,0.4-1.2,1.3c0.1,0.8,0,1.7,0,2.5c0,0.3,0.1,0.6-0.4,0.6   c-0.5,0-0.3-0.3-0.3-0.6C148.6,82.2,148.6,81.7,148.6,81.2z"/>
</g>
</svg>